<?xml version="1.0" encoding="UTF-8"?>
<svg width="54px" height="51px" viewBox="0 0 54 51" version="1.1" xmlns="http://www.w3.org/2000/svg" xmlns:xlink="http://www.w3.org/1999/xlink">
    <!-- Generator: Sketch 47.1 (45422) - http://www.bohemiancoding.com/sketch -->
    <title>Shape</title>
    <desc>Created with Sketch.</desc>
    <defs></defs>
    <g id="Mobiles" stroke="none" stroke-width="1" fill="none" fill-rule="evenodd">
        <g id="formulaire-2" transform="translate(-284.000000, -398.000000)" fill-rule="nonzero" fill="#F3F3F3">
            <g id="Group-3" transform="translate(27.000000, 338.000000)">
                <g id="importe" transform="translate(246.000000, 48.000000)">
                    <g id="venus-mars" transform="translate(11.000000, 12.000000)">
                        <path d="M52.875,0 L45.46875,0 C44.465625,0 43.96875,1.28496094 44.671875,2.04199219 L46.25625,3.72539062 L41.690625,8.57636719 C39.609375,7.18183594 37.14375,6.375 34.5,6.375 C31.340625,6.375 28.44375,7.53046875 26.1375,9.45292969 C27.45,11.1164063 28.48125,13.0388672 29.146875,15.140625 C30.50625,13.6664062 32.4,12.75 34.5,12.75 C38.634375,12.75 42,16.3259766 42,20.71875 C42,25.1115234 38.634375,28.6875 34.5,28.6875 C32.409375,28.6875 30.50625,27.7710938 29.146875,26.296875 C28.48125,28.3986328 27.459375,30.3210937 26.1375,31.9845703 C28.434375,33.9169922 31.340625,35.0625 34.5,35.0625 C41.953125,35.0625 48,28.6376953 48,20.71875 C48,17.9097656 47.240625,15.2900391 45.928125,13.0787109 L50.49375,8.22773438 L52.078125,9.91113281 C52.303125,10.1501953 52.584375,10.2597656 52.865625,10.2597656 C53.446875,10.2597656 54,9.78164062 54,9.06445312 L54,1.1953125 C54,0.537890625 53.49375,0 52.875,0 Z M13.5,6.375 C6.046875,6.375 0,12.7998047 0,20.71875 C0,27.5419922 4.490625,33.2595703 10.5,34.7039062 L10.5,39.84375 L7.125,39.84375 C6.50625,39.84375 6,40.3816406 6,41.0390625 L6,45.0234375 C6,45.6808594 6.50625,46.21875 7.125,46.21875 L10.5,46.21875 L10.5,49.8046875 C10.5,50.4621094 11.00625,51 11.625,51 L15.375,51 C15.99375,51 16.5,50.4621094 16.5,49.8046875 L16.5,46.21875 L19.875,46.21875 C20.49375,46.21875 21,45.6808594 21,45.0234375 L21,41.0390625 C21,40.3816406 20.49375,39.84375 19.875,39.84375 L16.5,39.84375 L16.5,34.7039062 C22.509375,33.2496094 27,27.5419922 27,20.71875 C27,12.7998047 20.953125,6.375 13.5,6.375 Z M13.5,28.6875 C9.365625,28.6875 6,25.1115234 6,20.71875 C6,16.3259766 9.365625,12.75 13.5,12.75 C17.634375,12.75 21,16.3259766 21,20.71875 C21,25.1115234 17.634375,28.6875 13.5,28.6875 Z" id="Shape"></path>
                    </g>
                </g>
            </g>
        </g>
    </g>
</svg>