<?xml version="1.0" encoding="UTF-8"?>
<svg width="35px" height="54px" viewBox="0 0 35 54" version="1.1" xmlns="http://www.w3.org/2000/svg" xmlns:xlink="http://www.w3.org/1999/xlink">
    <!-- Generator: Sketch 47.1 (45422) - http://www.bohemiancoding.com/sketch -->
    <title>Shape</title>
    <desc>Created with Sketch.</desc>
    <defs></defs>
    <g id="Mobiles" stroke="none" stroke-width="1" fill="none" fill-rule="evenodd">
        <g id="formulaire-2" transform="translate(-47.000000, -209.000000)" fill-rule="nonzero" fill="#F3F3F3">
            <g id="Group-3" transform="translate(27.000000, 148.000000)">
                <g id="femme" transform="translate(0.000000, 50.000000)">
                    <g id="venus" transform="translate(20.000000, 11.000000)">
                        <path d="M35,17.3571429 C35,7.77455357 27.1614583,0 17.5,0 C7.83854167,0 0,7.77455357 0,17.3571429 C0,25.6138393 5.82118056,32.5325893 13.6111111,34.2803571 L13.6111111,40.5 L9.23611111,40.5 C8.43402778,40.5 7.77777778,41.1508929 7.77777778,41.9464286 L7.77777778,46.7678571 C7.77777778,47.5633929 8.43402778,48.2142857 9.23611111,48.2142857 L13.6111111,48.2142857 L13.6111111,52.5535714 C13.6111111,53.3491071 14.2673611,54 15.0694444,54 L19.9305556,54 C20.7326389,54 21.3888889,53.3491071 21.3888889,52.5535714 L21.3888889,48.2142857 L25.7638889,48.2142857 C26.5659722,48.2142857 27.2222222,47.5633929 27.2222222,46.7678571 L27.2222222,41.9464286 C27.2222222,41.1508929 26.5659722,40.5 25.7638889,40.5 L21.3888889,40.5 L21.3888889,34.2803571 C29.1788194,32.5325893 35,25.6138393 35,17.3571429 Z M7.77777778,17.3571429 C7.77777778,12.0415179 12.140625,7.71428571 17.5,7.71428571 C22.859375,7.71428571 27.2222222,12.0415179 27.2222222,17.3571429 C27.2222222,22.6727679 22.859375,27 17.5,27 C12.140625,27 7.77777778,22.6727679 7.77777778,17.3571429 Z" id="Shape"></path>
                    </g>
                </g>
            </g>
        </g>
    </g>
</svg>