<?xml version="1.0" encoding="UTF-8"?>
<svg width="40px" height="38px" viewBox="0 0 40 38" version="1.1" xmlns="http://www.w3.org/2000/svg" xmlns:xlink="http://www.w3.org/1999/xlink">
    <!-- Generator: Sketch 49.2 (51160) - http://www.bohemiancoding.com/sketch -->
    <title>Shape</title>
    <desc>Created with Sketch.</desc>
    <defs></defs>
    <g id="Desktop" stroke="none" stroke-width="1" fill="none" fill-rule="evenodd">
        <g id="Profiles" transform="translate(-1166.000000, -171.000000)" fill="#F04240" fill-rule="nonzero">
            <g id="Group" transform="translate(420.000000, 146.000000)">
                <path d="M781.934367,46.4161312 L785.527498,48.2770081 C785.937855,48.4895047 786.128321,48.9289467 785.987769,49.3349521 C785.054412,52.0312152 783.460874,54.4670962 781.376713,56.4902391 C781.055469,56.8022513 780.536217,56.8730511 780.126166,56.6607508 L776.535732,54.8001765 C775.025081,55.9614991 773.288329,56.8624587 771.41289,57.4577075 L771.41289,61.178251 C771.412896,61.6032837 771.084472,61.9715183 770.622276,62.0646999 C767.674991,62.6585405 764.509585,62.6892538 761.41357,62.0652295 C760.950685,61.9719549 760.620764,61.6040763 760.620764,61.1784023 L760.620764,57.4577075 C758.745307,56.8624935 757.008547,55.9615304 755.497921,54.8001765 L751.907487,56.6607508 C751.497436,56.8730511 750.978184,56.8022513 750.65694,56.4902391 C748.572863,54.4670962 746.979241,52.0312152 746.045884,49.3349521 C745.905332,48.9290224 746.095798,48.4895803 746.506155,48.2770081 L750.099371,46.4161312 C749.738465,44.6607906 749.738465,42.8610241 750.099371,41.1056836 L746.506239,39.2448067 C746.095882,39.0323101 745.905416,38.5928681 746.045968,38.1868627 C746.979326,35.4905996 748.572863,33.0547186 750.657024,31.0315756 C750.978269,30.7195635 751.497521,30.6487637 751.907572,30.861064 L755.498005,32.7216383 C757.008656,31.5603157 758.745409,30.6593561 760.620848,30.0641072 L760.620848,26.3434881 C760.620841,25.9184555 760.949265,25.5502208 761.411462,25.4570392 C764.358747,24.8631986 767.524153,24.8324854 770.620168,25.4565097 C771.083053,25.5497842 771.412974,25.9176628 771.412974,26.3433368 L771.412974,30.0640316 C773.288431,30.6592456 775.02519,31.5602087 776.535817,32.7215627 L780.12625,30.8609883 C780.536301,30.648688 781.055553,30.7194878 781.376798,31.0315 C783.460874,33.0546429 785.054496,35.4905239 785.987854,38.186787 C786.128405,38.5927168 785.93794,39.0321588 785.527583,39.244731 L781.934367,41.1056079 C782.295273,42.8609738 782.295273,44.6607653 781.934367,46.4161312 Z M772.762,43.7608696 C772.762,40.4238639 769.736134,37.7089912 766.016869,37.7089912 C762.297603,37.7089912 759.271737,40.4238639 759.271737,43.7608696 C759.271737,47.0978753 762.297603,49.8127479 766.016869,49.8127479 C769.736134,49.8127479 772.762,47.0978753 772.762,43.7608696 Z" id="Shape"></path>
            </g>
        </g>
    </g>
</svg>