<?xml version="1.0" encoding="UTF-8"?>
<svg width="72px" height="61px" viewBox="0 0 72 61" version="1.1" xmlns="http://www.w3.org/2000/svg" xmlns:xlink="http://www.w3.org/1999/xlink">
    <!-- Generator: Sketch 47.1 (45422) - http://www.bohemiancoding.com/sketch -->
    <title>motif</title>
    <desc>Created with Sketch.</desc>
    <defs></defs>
    <g id="Mobiles" stroke="none" stroke-width="1" fill="none" fill-rule="evenodd">
        <g id="home-mobile" transform="translate(-26.000000, -272.000000)">
            <g id="motif" transform="translate(26.000000, 272.000000)">
                <g id="star" transform="translate(31.000000, 20.000000)" fill-rule="nonzero" fill="#2838B8">
                    <path d="M37.4480886,17.0896575 L37.4480886,17.0896575 C29.9694767,17.0896575 23.9050022,11.0214234 23.9050022,3.53817499 L23.9050022,3.53817499 C23.9050022,2.04152532 23.0347638,0.626511087 21.6206262,0.191122092 C19.2818603,-0.598020462 17.0790692,1.17074733 17.0790692,3.40211593 L17.0790692,3.53817499 C17.0790692,11.0214234 11.0145948,17.0896575 3.53598283,17.0896575 L3.53598283,17.0896575 C2.04026045,17.0896575 0.626122917,17.9604355 0.191003677,19.3754497 C-0.597649945,21.7156655 1.17002197,23.9198223 3.40000807,23.9198223 L3.53598283,23.9198223 C11.0145948,23.9198223 17.0790692,29.9880565 17.0790692,37.4713048 L17.0790692,37.4713048 C17.0790692,38.9679545 17.9493077,40.3829687 19.3634452,40.8183577 C21.7022111,41.5802885 23.9050022,39.8387325 23.9050022,37.5801521 L23.9050022,37.5801521 C23.9050022,30.0152683 30.0238666,23.8926105 37.5840633,23.8926105 L37.5840633,23.8926105 C39.8140495,23.8926105 41.5817214,21.6884537 40.8202627,19.3482379 C40.3579485,17.9604355 38.943811,17.0896575 37.4480886,17.0896575 Z" id="Shape"></path>
                </g>
                <g id="star-copy" transform="translate(13.000000, 10.000000)" fill-rule="nonzero" fill="#FFFFFF">
                    <path d="M17.3539923,7.91959737 L17.3539923,7.91959737 C13.8882941,7.91959737 11.0779279,5.10748887 11.0779279,1.63964207 L11.0779279,1.63964207 C11.0779279,0.94607271 10.6746466,0.290334406 10.0193146,0.0885687742 C8.93549625,-0.277131434 7.91469059,0.542541446 7.91469059,1.57659031 L7.91469059,1.63964207 C7.91469059,5.10748887 5.1043244,7.91959737 1.63862619,7.91959737 L1.63862619,7.91959737 C0.945486548,7.91959737 0.290154523,8.32312863 0.0885138993,8.97886693 C-0.27695973,10.0633572 0.542205302,11.0847957 1.5756135,11.0847957 L1.63862619,11.0847957 C5.1043244,11.0847957 7.91469059,13.8969042 7.91469059,17.364751 L7.91469059,17.364751 C7.91469059,18.0583204 8.31797184,18.7140587 8.97330386,18.9158243 C10.0571222,19.2689142 11.0779279,18.4618516 11.0779279,17.4151924 L11.0779279,17.4151924 C11.0779279,13.9095146 13.9134991,11.0721854 17.417005,11.0721854 L17.417005,11.0721854 C18.4504132,11.0721854 19.2695782,10.0507469 18.9167071,8.96625658 C18.7024639,8.32312863 18.0471319,7.91959737 17.3539923,7.91959737 Z" id="Shape"></path>
                </g>
                <g id="star-copy" transform="translate(11.000000, 41.000000)" fill-rule="nonzero" fill="#FFFFFF">
                    <path d="M10.9604162,5.00185097 L10.9604162,5.00185097 C8.77155414,5.00185097 6.99658602,3.22578244 6.99658602,1.03556341 L6.99658602,1.03556341 C6.99658602,0.597519606 6.74188208,0.183369099 6.32798817,0.0559381732 C5.64347131,-0.175030379 4.99875195,0.342657755 4.99875195,0.995741248 L4.99875195,1.03556341 C4.99875195,3.22578244 3.22378383,5.00185097 1.0349218,5.00185097 L1.0349218,5.00185097 C0.597149399,5.00185097 0.183255488,5.25671282 0.0559035154,5.67086333 C-0.174921935,6.35580455 0.342445454,7.00092361 0.995124313,7.00092361 L1.0349218,7.00092361 C3.22378383,7.00092361 4.99875195,8.77699213 4.99875195,10.9672112 L4.99875195,10.9672112 C4.99875195,11.405255 5.2534559,11.8194055 5.66734981,11.9468364 C6.35186666,12.1698405 6.99658602,11.6601168 6.99658602,10.9990689 L6.99658602,10.9990689 C6.99658602,8.78495657 8.78747314,6.99295918 11.0002137,6.99295918 L11.0002137,6.99295918 C11.6528925,6.99295918 12.1702599,6.34784012 11.947394,5.66289889 C11.8120825,5.25671282 11.3981886,5.00185097 10.9604162,5.00185097 Z" id="Shape"></path>
                </g>
                <circle id="Oval-3" fill="#FFFFFF" cx="42.5" cy="3.5" r="3.5"></circle>
                <circle id="Oval-3-Copy" fill="#FFFFFF" cx="3.5" cy="29.5" r="3.5"></circle>
            </g>
        </g>
    </g>
</svg>