<?xml version="1.0" encoding="UTF-8"?>
<svg width="55px" height="47px" viewBox="0 0 55 47" version="1.1" xmlns="http://www.w3.org/2000/svg" xmlns:xlink="http://www.w3.org/1999/xlink">
    <!-- Generator: Sketch 47.1 (45422) - http://www.bohemiancoding.com/sketch -->
    <title>motif</title>
    <desc>Created with Sketch.</desc>
    <defs></defs>
    <g id="Mobiles" stroke="none" stroke-width="1" fill="none" fill-rule="evenodd">
        <g id="home-mobile" transform="translate(-287.000000, -179.000000)">
            <g id="motif" transform="translate(287.000000, 179.000000)">
                <g id="star" transform="translate(36.000000, 0.000000)" fill-rule="nonzero" fill="#2838B8">
                    <path d="M17.3539923,7.91959737 L17.3539923,7.91959737 C13.8882941,7.91959737 11.0779279,5.10748887 11.0779279,1.63964207 L11.0779279,1.63964207 C11.0779279,0.94607271 10.6746466,0.290334406 10.0193146,0.0885687742 C8.93549625,-0.277131434 7.91469059,0.542541446 7.91469059,1.57659031 L7.91469059,1.63964207 C7.91469059,5.10748887 5.1043244,7.91959737 1.63862619,7.91959737 L1.63862619,7.91959737 C0.945486548,7.91959737 0.290154523,8.32312863 0.0885138993,8.97886693 C-0.27695973,10.0633572 0.542205302,11.0847957 1.5756135,11.0847957 L1.63862619,11.0847957 C5.1043244,11.0847957 7.91469059,13.8969042 7.91469059,17.364751 L7.91469059,17.364751 C7.91469059,18.0583204 8.31797184,18.7140587 8.97330386,18.9158243 C10.0571222,19.2689142 11.0779279,18.4618516 11.0779279,17.4151924 L11.0779279,17.4151924 C11.0779279,13.9095146 13.9134991,11.0721854 17.417005,11.0721854 L17.417005,11.0721854 C18.4504132,11.0721854 19.2695782,10.0507469 18.9167071,8.96625658 C18.7024639,8.32312863 18.0471319,7.91959737 17.3539923,7.91959737 Z" id="Shape"></path>
                </g>
                <g id="star-copy-2" transform="translate(0.000000, 15.000000)" fill-rule="nonzero" fill="#FFFFFF">
                    <path d="M29.2277765,13.3382692 L29.2277765,13.3382692 C23.390811,13.3382692 18.6575627,8.60208652 18.6575627,2.76150243 L18.6575627,2.76150243 C18.6575627,1.59338562 17.9783522,0.488984263 16.8746351,0.149168462 C15.0492568,-0.466747678 13.3300052,0.913754015 13.3300052,2.65531 L13.3300052,2.76150243 C13.3300052,8.60208652 8.59675689,13.3382692 2.75979148,13.3382692 L2.75979148,13.3382692 C1.5923984,13.3382692 0.488681301,14.0179008 0.149076041,15.1223022 C-0.466458493,16.9488121 0.913187877,18.6691296 2.65366484,18.6691296 L2.75979148,18.6691296 C8.59675689,18.6691296 13.3300052,23.4053124 13.3300052,29.2458964 L13.3300052,29.2458964 C13.3300052,30.4140133 14.0092157,31.5184146 15.1129328,31.8582304 C16.9383111,32.4529081 18.6575627,31.0936449 18.6575627,29.3308504 L18.6575627,29.3308504 C18.6575627,23.4265508 23.4332617,18.6478911 29.3339031,18.6478911 L29.3339031,18.6478911 C31.0743801,18.6478911 32.4540264,16.9275736 31.8597172,15.1010637 C31.4988866,14.0179008 30.3951695,13.3382692 29.2277765,13.3382692 Z" id="Shape"></path>
                </g>
                <circle id="Oval-3" fill="#FFFFFF" cx="51.5" cy="43.5" r="3.5"></circle>
            </g>
        </g>
    </g>
</svg>