<?xml version="1.0" encoding="UTF-8"?>
<svg width="69px" height="62px" viewBox="0 0 69 62" version="1.1" xmlns="http://www.w3.org/2000/svg" xmlns:xlink="http://www.w3.org/1999/xlink">
    <!-- Generator: Sketch 49.2 (51160) - http://www.bohemiancoding.com/sketch -->
    <title>Shape</title>
    <desc>Created with Sketch.</desc>
    <defs></defs>
    <g id="Desktop" stroke="none" stroke-width="1" fill="none" fill-rule="evenodd">
        <g id="Profiles-Copy-2" transform="translate(-815.000000, -305.000000)" fill="#F04240" fill-rule="nonzero">
            <g id="connexion" transform="translate(686.000000, 285.000000)">
                <g id="Profile" transform="translate(129.000000, 20.000000)">
                    <path d="M68.2234056,53.2828243 C70.4345195,57.1570977 67.6590672,62 63.2428289,62 L5.75650146,62 C1.33175792,62 -1.43087671,57.1495899 0.775924746,53.2828243 L29.5194478,2.90443416 C31.7316399,-0.971655644 37.2723623,-0.964632206 39.4806013,2.90443416 L68.2234056,53.2828243 Z M34.5000245,42.8671877 C31.4567181,42.8671877 28.9896094,45.3611134 28.9896094,48.4375001 C28.9896094,51.5138868 31.4567181,54.0078126 34.5000245,54.0078126 C37.543331,54.0078126 40.0104396,51.5138868 40.0104396,48.4375001 C40.0104396,45.3611134 37.543331,42.8671877 34.5000245,42.8671877 Z M29.2683646,22.8448207 L30.1569789,39.3135705 C30.1985466,40.0842111 30.8288902,40.6875002 31.5923222,40.6875002 L37.4077268,40.6875002 C38.1711589,40.6875002 38.8015025,40.0842111 38.8430702,39.3135705 L39.7316845,22.8448207 C39.7766064,22.0124223 39.1209868,21.3125004 38.2963412,21.3125004 L30.7035881,21.3125004 C29.8789425,21.3125004 29.2234427,22.0124223 29.2683646,22.8448207 Z" id="Shape"></path>
                </g>
            </g>
        </g>
    </g>
</svg>